<svg version="1.1" id="Layer_1" xmlns="http://www.w3.org/2000/svg" xmlns:xlink="http://www.w3.org/1999/xlink" x="0px" y="0px"
	 width="100%" viewBox="0 0 315 91" enable-background="new 0 0 315 91" xml:space="preserve">
<path fill="#FFFFFF" opacity="1.000000" stroke="none" 
	d="
M307.000000,92.000000 
	C306.250000,92.000000 305.500000,92.000000 304.501343,91.639450 
	C307.065491,87.193237 306.683197,82.430252 303.007812,80.646103 
	C299.221130,78.807945 296.825226,80.957901 295.411804,84.373337 
	C293.723236,79.798409 290.080536,80.070946 286.043365,80.197762 
	C286.043365,83.455330 286.043365,86.366722 286.043365,90.462929 
	C285.089111,88.409554 284.677094,87.403992 284.167267,86.450737 
	C283.092926,84.441872 281.967407,82.460403 280.862885,80.467697 
	C279.546539,82.315445 278.240814,84.170982 276.896759,85.998329 
	C276.769318,86.171585 276.401611,86.168114 276.114868,86.256088 
	C275.999664,84.177292 275.886047,82.127678 275.752258,79.713326 
	C269.481445,81.078842 273.562744,86.272644 270.162750,90.208878 
	C269.467590,86.154472 268.953705,83.157257 268.231506,78.945259 
	C266.888885,80.582314 266.146606,81.487366 265.153229,82.698555 
	C262.565582,78.787682 259.495148,79.243172 256.678436,82.094185 
	C254.055740,78.317314 250.482941,80.554901 247.000000,80.171829 
	C247.000000,84.403679 247.000000,88.201836 247.000000,92.000000 
	C242.975449,92.000000 238.950912,92.000000 234.461975,91.606537 
	C233.647202,89.797943 233.554413,88.245819 232.890594,86.997322 
	C231.660324,84.683441 230.096222,82.547066 228.671143,80.336761 
	C227.392517,82.636742 226.123047,84.941956 224.814743,87.224922 
	C224.727570,87.377007 224.345551,87.360123 224.100540,87.421280 
	C223.524338,80.184357 222.387924,79.301392 215.000000,80.664352 
	C215.000000,84.400192 215.000000,88.200096 215.000000,92.000000 
	C215.000000,92.000000 214.500000,92.000000 214.250000,91.595581 
	C213.811829,89.736900 213.527359,88.287613 213.451981,86.827515 
	C213.102173,80.052460 212.416687,79.490395 204.894531,80.540260 
	C204.894531,83.362358 204.894531,86.291595 204.894531,89.763161 
	C203.080017,86.031395 201.603943,82.995705 199.673111,79.024719 
	C198.307144,81.305260 197.596619,82.364616 197.019516,83.492249 
	C196.487885,84.530983 196.099609,85.643074 195.292435,87.573776 
	C194.689606,79.008606 191.791214,79.234406 182.000000,80.590340 
	C182.000000,84.370720 182.000000,88.185364 182.000000,92.000000 
	C121.666649,92.000000 61.333302,92.000000 1.000000,92.000000 
	C1.000000,86.583748 1.000000,81.262329 1.416771,75.479401 
	C5.668599,76.122368 9.545116,77.535889 11.829823,74.654602 
	C14.099030,75.306740 15.853150,75.810844 17.755774,76.357635 
	C17.986029,74.545578 18.113552,73.541992 18.325182,71.876518 
	C21.391714,78.987450 26.653616,74.777847 31.027819,76.225815 
	C31.027819,72.746216 31.027819,70.109726 31.027819,66.847206 
	C34.915577,78.627731 34.257683,76.140953 39.653095,75.531815 
	C40.601326,72.756943 41.517803,70.074989 42.434280,67.393036 
	C42.622856,67.434532 42.811436,67.476028 43.000011,67.517517 
	C43.000011,68.816345 43.000008,70.115173 43.000008,71.414001 
	C43.000008,72.847290 43.000011,74.280579 43.000011,75.658310 
	C54.004910,76.589645 54.004910,76.589645 53.443836,72.200523 
	C51.839695,72.036270 50.235138,71.875175 48.630585,71.714081 
	C48.641392,71.549316 48.652199,71.384560 48.663006,71.219795 
	C50.409451,71.050362 52.155899,70.880920 53.650723,70.735893 
	C53.650723,68.012520 53.650723,65.596970 53.650723,62.594246 
	C47.979279,64.858627 41.415119,59.325428 37.218533,65.296654 
	C32.367203,60.858177 26.522366,64.117256 21.305502,62.809517 
	C21.098372,64.337776 20.950792,65.426659 20.899284,65.806702 
	C19.068695,64.711510 17.046350,63.501595 13.926838,61.635277 
	C13.926838,65.727028 13.926838,68.120651 13.926838,70.514275 
	C13.689375,70.516151 13.451912,70.518028 13.214449,70.519897 
	C13.075747,68.105171 12.937045,65.690445 12.797777,63.265869 
	C11.086206,63.265869 9.689001,63.265869 8.308946,63.265869 
	C8.018229,66.354813 7.752070,69.182838 7.485911,72.010864 
	C7.056455,71.969673 6.626999,71.928482 6.197544,71.887291 
	C6.065935,68.966858 5.934326,66.046425 5.797040,63.000000 
	C3.982479,63.000000 2.491239,63.000000 1.000000,63.000000 
	C1.000000,60.958332 1.000000,58.916668 1.393223,56.571728 
	C17.263315,56.807907 32.738720,57.529060 48.218929,57.653793 
	C50.125500,57.669155 53.533024,54.644386 53.714123,52.782284 
	C54.379559,45.940128 53.978050,38.994213 53.978050,32.206314 
	C45.649277,32.206314 38.041496,32.206314 29.999374,32.206314 
	C29.999374,36.347775 30.227131,40.318005 29.871840,44.235359 
	C29.752689,45.549080 28.147717,46.728039 27.221889,47.968597 
	C26.148035,46.651550 24.304678,45.419476 24.148058,44.001141 
	C23.719257,40.118019 24.000320,36.156506 24.000320,32.000000 
	C15.933267,32.000000 8.466634,32.000000 1.000000,32.000000 
	C1.000000,31.250000 1.000000,30.500000 1.468657,29.375000 
	C19.856565,29.000000 37.775818,29.000000 56.129993,29.000000 
	C56.129993,38.933807 56.129993,48.333591 56.129993,57.999973 
	C62.034374,57.999973 67.515160,57.771942 72.966301,58.075825 
	C76.958405,58.298370 78.219513,56.930836 78.081390,52.957821 
	C77.806381,45.046925 77.999969,37.119743 77.999969,28.791752 
	C96.696030,28.791752 114.757744,28.791752 132.658752,28.791752 
	C132.658752,25.628347 132.658752,22.896902 132.658752,20.000000 
	C88.545174,20.000000 44.772587,20.000000 1.000000,20.000000 
	C1.000000,15.643101 1.000000,11.286201 1.468657,6.464651 
	C20.643129,6.000000 39.349026,6.023901 58.054615,5.959503 
	C59.747845,5.953674 61.439114,5.379220 63.394356,4.858979 
	C63.449780,4.308185 63.242138,3.967243 63.078995,3.620081 
	C63.123493,3.613862 63.192894,3.674667 63.208427,3.741174 
	C63.223961,3.807681 63.325607,3.898929 63.919052,4.318308 
	C64.907188,4.456771 65.301872,4.175855 65.608902,4.168911 
	C65.986847,4.651041 66.452454,4.859200 67.006165,5.315532 
	C67.399681,5.633264 67.705093,5.702822 68.474991,5.831894 
	C101.765923,5.926889 134.592361,5.972597 167.418793,5.957125 
	C168.620361,5.956559 169.821655,5.356485 171.417419,5.180553 
	C172.416306,5.536352 173.021072,5.932494 173.625305,5.931662 
	C194.415741,5.903035 215.206161,5.836864 236.211044,5.851139 
	C236.425522,5.926206 236.879242,5.899813 237.354645,5.928719 
	C263.886688,5.971749 289.943359,5.985875 316.000000,6.000000 
	C316.000000,24.687561 316.000000,43.375122 315.531372,62.531342 
	C303.762115,63.000000 292.461487,63.000000 281.202087,63.000000 
	C281.045349,64.770027 280.926300,66.114624 280.757629,68.019455 
	C277.759949,60.902992 273.350891,60.281525 268.331879,64.675850 
	C266.012604,63.834209 264.307739,63.215519 262.301483,62.487465 
	C262.053986,64.404297 261.915863,65.474335 261.875397,65.787735 
	C260.015381,64.689720 257.997070,63.498253 255.189026,61.840599 
	C255.189026,67.481087 255.189026,71.588860 255.189026,76.823792 
	C259.121948,73.248131 264.347137,78.866760 267.683197,73.591339 
	C271.729980,77.480751 276.756195,78.032257 280.881989,71.218765 
	C280.970703,72.896286 281.043976,74.282440 281.123993,75.795067 
	C282.804047,75.795067 284.233398,75.795067 285.554993,75.795067 
	C285.975159,74.363708 286.331512,73.149643 286.687897,71.935577 
	C286.979950,71.980759 287.272003,72.025948 287.564056,72.071129 
	C287.878876,73.384262 288.193695,74.697388 288.451447,75.772491 
	C290.123779,75.772491 291.405792,75.772491 292.662598,75.772491 
	C293.399170,67.623253 293.399170,67.623253 296.115662,67.390221 
	C296.115662,70.186485 296.115662,72.952080 296.115662,75.735558 
	C297.912109,75.735558 299.308044,75.735558 300.390747,75.735558 
	C302.308655,72.923904 298.874634,68.716858 303.717682,66.398010 
	C303.917908,69.990601 304.079376,72.887520 304.252869,76.000000 
	C308.390472,76.000000 312.195251,76.000000 316.000000,76.000000 
	C316.000000,77.714355 316.000000,79.428719 315.635376,81.447906 
	C312.760315,81.002785 310.249908,80.252838 307.000000,79.281967 
	C307.000000,84.211525 307.000000,88.105766 307.000000,92.000000 
M102.549263,32.111481 
	C95.130379,32.111481 87.711494,32.111481 80.277458,32.111481 
	C80.277458,40.937618 80.277458,49.322369 80.277458,57.999901 
	C86.840378,57.999901 93.135071,57.849895 99.417740,58.059700 
	C102.841599,58.174038 104.452621,57.093159 104.019043,53.536663 
	C103.894402,52.514244 103.999931,51.463760 103.999931,50.187489 
	C107.380974,53.060646 109.999428,57.079700 113.224693,57.646618 
	C119.598427,58.766968 126.307922,57.977173 132.642181,57.977173 
	C132.642181,48.898052 132.642181,40.510105 132.642181,32.330093 
	C124.888168,32.330093 117.494934,32.330093 110.133575,32.330093 
	C110.004089,34.664669 109.893059,36.666641 109.717735,39.827579 
	C106.958389,36.840153 105.044304,34.767853 102.549263,32.111481 
M136.006851,68.775322 
	C136.586365,68.198723 137.165863,67.622124 137.745361,67.045517 
	C138.161179,67.620529 138.898422,68.175507 138.935745,68.774109 
	C139.077469,71.047722 138.992844,73.335442 138.992844,75.558273 
	C148.837326,76.664742 150.043365,76.449852 151.394104,73.480278 
	C156.445374,77.350578 159.159958,77.362015 162.520172,74.565742 
	C165.142807,75.320015 166.869934,75.816734 168.759079,76.360054 
	C168.979279,74.544304 169.101425,73.537102 169.126648,73.329063 
	C171.125748,74.412415 173.128540,75.497757 175.756012,76.921638 
	C175.756012,71.344521 175.756012,67.240700 175.756012,61.984367 
	C171.769287,65.891548 166.511673,60.045143 163.211472,65.307838 
	C159.324722,60.876377 156.693176,60.891315 152.005264,64.776382 
	C150.183289,63.797115 148.825073,63.067097 147.481140,62.344765 
	C147.982895,61.489655 148.531174,60.555241 149.766266,58.450340 
	C147.083511,59.180641 144.468353,59.239544 144.184128,60.083458 
	C142.982147,63.652550 140.328888,62.992626 137.789612,62.998314 
	C134.651917,63.005344 131.514175,63.000000 128.159119,63.000000 
	C129.499893,67.370087 130.732315,71.387047 132.130859,75.945503 
	C132.945969,75.908249 134.451141,75.839455 136.000671,75.768639 
	C136.000671,73.356079 136.000671,71.525017 136.006851,68.775322 
M110.692429,63.008781 
	C109.878258,65.774910 109.064095,68.541039 108.366356,70.911606 
	C107.529236,68.608055 106.511589,65.807732 105.661697,63.469055 
	C98.008354,60.540779 99.950554,67.991302 97.315224,70.741333 
	C96.557968,63.284809 94.609978,62.221638 84.218521,63.422256 
	C84.218521,67.467178 84.218521,71.536942 84.218521,76.149673 
	C90.690071,75.794327 96.904724,75.453087 103.119377,75.111847 
	C107.269791,75.637993 111.543587,75.909531 115.820511,75.974380 
	C120.105247,76.039375 121.965401,73.701958 122.033661,69.498672 
	C122.101082,65.347366 120.530838,62.940922 116.106789,62.997276 
	C114.609016,63.016357 113.110817,63.000725 110.692429,63.008781 
M242.904083,63.721085 
	C236.946915,62.672195 231.053894,62.277596 224.940186,64.064262 
	C221.568344,63.659969 217.471649,63.168770 213.313995,62.670254 
	C213.313995,67.681168 213.313995,71.755341 213.313995,76.648712 
	C217.782684,75.870834 221.806793,75.170349 226.088470,74.425026 
	C226.927124,76.323433 235.531601,77.138680 248.709824,75.599724 
	C250.278687,69.847023 244.980057,73.088036 242.989487,71.188705 
	C242.989487,69.266029 242.989487,66.963303 242.904083,63.721085 
M55.057629,75.096916 
	C56.505547,75.475754 57.953465,75.854584 59.432941,76.241676 
	C59.939133,74.477585 60.296360,73.232658 60.653584,71.987724 
	C60.931004,72.002525 61.208420,72.017334 61.485840,72.032135 
	C61.804798,73.326675 62.123756,74.621216 62.350128,75.539970 
	C69.354073,75.539970 76.050468,75.539970 82.780663,75.539970 
	C82.780663,71.348518 82.780663,67.252846 82.780663,62.823227 
	C80.446968,63.197315 77.709549,64.523338 76.464447,63.670547 
	C72.618973,61.036705 69.834503,61.817272 68.130592,63.987980 
	C63.283886,63.499115 59.407688,63.108139 55.006100,62.664173 
	C55.006100,66.966148 55.006100,70.572311 55.057629,75.096916 
M183.043716,73.379005 
	C185.036697,76.233856 187.686478,76.821831 190.984192,76.010368 
	C194.357224,75.180359 197.804016,74.636772 201.235886,74.073654 
	C201.751633,73.989029 202.354584,74.502892 202.930084,74.702812 
	C204.501709,75.248741 206.080215,75.774834 208.562820,76.616066 
	C206.983932,71.987808 206.008499,68.586128 204.617050,65.364128 
	C204.171371,64.332138 202.648193,63.199799 201.576248,63.156921 
	C200.414490,63.110451 198.699554,63.988312 198.120316,64.983612 
	C196.931549,67.026245 196.339935,69.416389 195.502502,71.663475 
	C195.427277,71.200569 195.352066,70.737656 195.276840,70.274750 
	C192.977524,70.600006 190.678207,70.925270 187.404007,71.388428 
	C187.570892,70.089539 187.772141,68.523033 187.902802,67.506035 
	C190.836060,68.271194 192.745255,68.769218 194.654465,69.267242 
	C194.950058,68.879967 195.245667,68.492699 195.541275,68.105423 
	C194.757462,66.634735 194.322601,64.729721 193.128174,63.770123 
	C188.476669,60.033085 185.173279,62.804802 182.201126,66.599258 
	C182.042587,65.419411 181.896957,64.335716 181.746948,63.219265 
	C180.173233,63.219265 178.753952,63.219265 177.214050,63.219265 
	C177.214050,67.530670 177.214050,71.623161 177.214050,75.829285 
	C178.871246,75.829285 180.313812,75.829285 181.473557,75.829285 
	C182.016083,74.601456 182.450302,73.618767 183.043716,73.379005 
z"/>
<path fill="#D10A11" opacity="1.000000" stroke="none" 
	d="
M1.000000,20.449980 
	C44.772587,20.000000 88.545174,20.000000 132.658752,20.000000 
	C132.658752,22.896902 132.658752,25.628347 132.658752,28.791752 
	C114.757744,28.791752 96.696030,28.791752 77.999969,28.791752 
	C77.999969,37.119743 77.806381,45.046925 78.081390,52.957821 
	C78.219513,56.930836 76.958405,58.298370 72.966301,58.075825 
	C67.515160,57.771942 62.034374,57.999973 56.129993,57.999973 
	C56.129993,48.333591 56.129993,38.933807 56.129993,29.000000 
	C37.775818,29.000000 19.856565,29.000000 1.468657,29.000000 
	C1.000000,26.299986 1.000000,23.599974 1.000000,20.449980 
z"/>
<path fill="#D10A11" opacity="1.000000" stroke="none" 
	d="
M1.000000,32.468636 
	C8.466634,32.000000 15.933267,32.000000 24.000320,32.000000 
	C24.000320,36.156506 23.719257,40.118019 24.148058,44.001141 
	C24.304678,45.419476 26.148035,46.651550 27.221889,47.968597 
	C28.147717,46.728039 29.752689,45.549080 29.871840,44.235359 
	C30.227131,40.318005 29.999374,36.347775 29.999374,32.206314 
	C38.041496,32.206314 45.649277,32.206314 53.978050,32.206314 
	C53.978050,38.994213 54.379559,45.940128 53.714123,52.782284 
	C53.533024,54.644386 50.125500,57.669155 48.218929,57.653793 
	C32.738720,57.529060 17.263315,56.807907 1.393223,56.134228 
	C1.000000,48.312424 1.000000,40.624847 1.000000,32.468636 
z"/>
<path fill="#D10A11" opacity="1.000000" stroke="none" 
	d="
M316.000000,75.536819 
	C312.195251,76.000000 308.390472,76.000000 304.252869,76.000000 
	C304.079376,72.887520 303.917908,69.990601 303.717682,66.398010 
	C298.874634,68.716858 302.308655,72.923904 300.390747,75.735558 
	C299.308044,75.735558 297.912109,75.735558 296.115662,75.735558 
	C296.115662,72.952080 296.115662,70.186485 296.115662,67.390221 
	C293.399170,67.623253 293.399170,67.623253 292.662598,75.772491 
	C291.405792,75.772491 290.123779,75.772491 288.451447,75.772491 
	C288.193695,74.697388 287.878876,73.384262 287.564056,72.071129 
	C287.272003,72.025948 286.979950,71.980759 286.687897,71.935577 
	C286.331512,73.149643 285.975159,74.363708 285.554993,75.795067 
	C284.233398,75.795067 282.804047,75.795067 281.123993,75.795067 
	C281.043976,74.282440 280.970703,72.896286 280.881989,71.218765 
	C276.756195,78.032257 271.729980,77.480751 267.683197,73.591339 
	C264.347137,78.866760 259.121948,73.248131 255.189026,76.823792 
	C255.189026,71.588860 255.189026,67.481087 255.189026,61.840599 
	C257.997070,63.498253 260.015381,64.689720 261.875397,65.787735 
	C261.915863,65.474335 262.053986,64.404297 262.301483,62.487465 
	C264.307739,63.215519 266.012604,63.834209 268.331879,64.675850 
	C273.350891,60.281525 277.759949,60.902992 280.757629,68.019455 
	C280.926300,66.114624 281.045349,64.770027 281.202087,63.000000 
	C292.461487,63.000000 303.762115,63.000000 315.531372,63.000000 
	C316.000000,67.024544 316.000000,71.049088 316.000000,75.536819 
z"/>
<path fill="#D10A11" opacity="1.000000" stroke="none" 
	d="
M1.000000,63.460636 
	C2.491239,63.000000 3.982479,63.000000 5.797040,63.000000 
	C5.934326,66.046425 6.065935,68.966858 6.197544,71.887291 
	C6.626999,71.928482 7.056455,71.969673 7.485911,72.010864 
	C7.752070,69.182838 8.018229,66.354813 8.308946,63.265869 
	C9.689001,63.265869 11.086206,63.265869 12.797777,63.265869 
	C12.937045,65.690445 13.075747,68.105171 13.214449,70.519897 
	C13.451912,70.518028 13.689375,70.516151 13.926838,70.514275 
	C13.926838,68.120651 13.926838,65.727028 13.926838,61.635277 
	C17.046350,63.501595 19.068695,64.711510 20.899284,65.806702 
	C20.950792,65.426659 21.098372,64.337776 21.305502,62.809517 
	C26.522366,64.117256 32.367203,60.858177 37.218533,65.296654 
	C41.415119,59.325428 47.979279,64.858627 53.650723,62.594246 
	C53.650723,65.596970 53.650723,68.012520 53.650723,70.735893 
	C52.155899,70.880920 50.409451,71.050362 48.663006,71.219795 
	C48.652199,71.384560 48.641392,71.549316 48.630585,71.714081 
	C50.235138,71.875175 51.839695,72.036270 53.443836,72.200523 
	C54.004910,76.589645 54.004910,76.589645 43.000011,75.658310 
	C43.000011,74.280579 43.000008,72.847290 43.000008,71.414001 
	C43.000008,70.115173 43.000011,68.816345 43.000011,67.517517 
	C42.811436,67.476028 42.622856,67.434532 42.434280,67.393036 
	C41.517803,70.074989 40.601326,72.756943 39.653095,75.531815 
	C34.257683,76.140953 34.915577,78.627731 31.027819,66.847206 
	C31.027819,70.109726 31.027819,72.746216 31.027819,76.225815 
	C26.653616,74.777847 21.391714,78.987450 18.325182,71.876518 
	C18.113552,73.541992 17.986029,74.545578 17.755774,76.357635 
	C15.853150,75.810844 14.099030,75.306740 11.829823,74.654602 
	C9.545116,77.535889 5.668599,76.122368 1.416771,75.008942 
	C1.000000,71.307091 1.000000,67.614182 1.000000,63.460636 
z"/>
<path fill="#706F6F" opacity="1.000000" stroke="none" 
	d="
M247.468658,92.000000 
	C247.000000,88.201836 247.000000,84.403679 247.000000,80.171829 
	C250.482941,80.554901 254.055740,78.317314 256.678436,82.094185 
	C259.495148,79.243172 262.565582,78.787682 265.153229,82.698555 
	C266.146606,81.487366 266.888885,80.582314 268.231506,78.945259 
	C268.953705,83.157257 269.467590,86.154472 270.162750,90.208878 
	C273.562744,86.272644 269.481445,81.078842 275.752258,79.713326 
	C275.886047,82.127678 275.999664,84.177292 276.114868,86.256088 
	C276.401611,86.168114 276.769318,86.171585 276.896759,85.998329 
	C278.240814,84.170982 279.546539,82.315445 280.862885,80.467697 
	C281.967407,82.460403 283.092926,84.441872 284.167267,86.450737 
	C284.677094,87.403992 285.089111,88.409554 286.043365,90.462929 
	C286.043365,86.366722 286.043365,83.455330 286.043365,80.197762 
	C290.080536,80.070946 293.723236,79.798409 295.411804,84.373337 
	C296.825226,80.957901 299.221130,78.807945 303.007812,80.646103 
	C306.683197,82.430252 307.065491,87.193237 304.126343,91.639450 
	C285.312439,92.000000 266.624878,92.000000 247.468658,92.000000 
M262.109528,88.916595 
	C263.402069,87.928253 264.694611,86.939911 266.112549,85.855690 
	C264.072021,84.809517 262.285278,83.893448 260.513458,82.985039 
	C258.298492,87.036186 258.362427,87.431992 262.109528,88.916595 
z"/>
<path fill="#3C4040" opacity="1.000000" stroke="none" 
	d="
M171.023071,5.035802 
	C169.821655,5.356485 168.620361,5.956559 167.418793,5.957125 
	C134.592361,5.972597 101.765923,5.926889 68.344772,5.643225 
	C67.520836,5.163660 67.243500,5.054432 66.918053,5.067358 
	C66.452454,4.859200 65.986847,4.651041 65.793427,3.710551 
	C66.076416,2.651843 66.087242,2.325466 66.120895,1.744671 
	C66.095802,1.326835 66.047905,1.163417 66.000000,1.000000 
	C100.687561,1.000000 135.375122,1.000000 170.488113,1.402409 
	C170.950058,2.881813 170.986557,3.958807 171.023071,5.035802 
z"/>
<path fill="#DBDBDA" opacity="1.000000" stroke="none" 
	d="
M316.000000,5.500038 
	C289.943359,5.985875 263.886688,5.971749 237.374344,5.699070 
	C236.918640,5.440516 236.837753,4.986393 236.891479,4.590643 
	C236.963486,3.129928 236.981750,2.064964 237.000000,1.000000 
	C263.333344,1.000000 289.666656,1.000000 316.000000,1.000000 
	C316.000000,2.349375 316.000000,3.674725 316.000000,5.500038 
z"/>
<path fill="#706F6F" opacity="1.000000" stroke="none" 
	d="
M182.468658,92.000000 
	C182.000000,88.185364 182.000000,84.370720 182.000000,80.590340 
	C191.791214,79.234406 194.689606,79.008606 195.292435,87.573776 
	C196.099609,85.643074 196.487885,84.530983 197.019516,83.492249 
	C197.596619,82.364616 198.307144,81.305260 199.673111,79.024719 
	C201.603943,82.995705 203.080017,86.031395 204.894531,89.763161 
	C204.894531,86.291595 204.894531,83.362358 204.894531,80.540260 
	C212.416687,79.490395 213.102173,80.052460 213.451981,86.827515 
	C213.527359,88.287613 213.811829,89.736900 214.000000,91.595581 
	C203.645767,92.000000 193.291550,92.000000 182.468658,92.000000 
z"/>
<path fill="#818382" opacity="1.000000" stroke="none" 
	d="
M236.531342,1.000000 
	C236.981750,2.064964 236.963486,3.129928 236.719330,4.685064 
	C236.269516,5.327294 236.103897,5.527573 235.996567,5.776072 
	C215.206161,5.836864 194.415741,5.903035 173.625305,5.931662 
	C173.021072,5.932494 172.416306,5.536352 171.417419,5.180552 
	C170.986557,3.958807 170.950058,2.881813 170.956772,1.402409 
	C192.687561,1.000000 214.375122,1.000000 236.531342,1.000000 
z"/>
<path fill="#D10A11" opacity="1.000000" stroke="none" 
	d="
M63.034496,3.626301 
	C63.242138,3.967243 63.449780,4.308185 62.917244,4.836537 
	C41.784710,5.015965 21.392355,5.007982 1.000000,5.000000 
	C1.000000,3.675305 1.000000,2.350610 1.000000,1.000000 
	C22.020887,1.000000 43.041786,1.000000 64.531342,1.249898 
	C65.000000,1.499796 65.000000,1.999592 65.000000,1.999796 
	C65.000000,2.000000 64.999695,2.000041 64.681595,2.046782 
	C64.153160,2.134820 63.942833,2.176118 63.577881,2.428078 
	C63.293678,2.967927 63.164085,3.297114 63.034496,3.626301 
z"/>
<path fill="#706F6F" opacity="1.000000" stroke="none" 
	d="
M215.468277,92.000000 
	C215.000000,88.200096 215.000000,84.400192 215.000000,80.664352 
	C222.387924,79.301392 223.524338,80.184357 224.100540,87.421280 
	C224.345551,87.360123 224.727570,87.377007 224.814743,87.224922 
	C226.123047,84.941956 227.392517,82.636742 228.671143,80.336761 
	C230.096222,82.547066 231.660324,84.683441 232.890594,86.997322 
	C233.554413,88.245819 233.647202,89.797943 233.998810,91.606537 
	C227.978851,92.000000 221.957703,92.000000 215.468277,92.000000 
z"/>
<path fill="#706F6F" opacity="1.000000" stroke="none" 
	d="
M307.491058,92.000000 
	C307.000000,88.105766 307.000000,84.211525 307.000000,79.281967 
	C310.249908,80.252838 312.760315,81.002785 315.635376,81.876366 
	C316.000000,85.246468 316.000000,88.492928 316.000000,92.000000 
	C313.330292,92.000000 310.656219,92.000000 307.491058,92.000000 
z"/>
<path fill="#D74836" opacity="1.000000" stroke="none" 
	d="
M1.000000,5.250000 
	C21.392355,5.007982 41.784710,5.015965 62.654182,5.046389 
	C61.439114,5.379220 59.747845,5.953674 58.054615,5.959503 
	C39.349026,6.023901 20.643129,6.000000 1.468657,6.000000 
	C1.000000,6.000000 1.000000,5.500000 1.000000,5.250000 
z"/>
<path fill="#D20A11" opacity="1.000000" stroke="none" 
	d="
M65.000000,1.999592 
	C65.000000,1.999592 65.000000,1.499796 65.000000,1.249898 
	C65.000000,1.000000 65.500000,1.000000 65.750000,1.000000 
	C66.047905,1.163417 66.095802,1.326835 65.846107,1.744932 
	C65.365669,1.999605 65.182838,1.999598 65.000000,1.999592 
z"/>
<path fill="#D10A11" opacity="1.000000" stroke="none" 
	d="
M102.839737,32.403519 
	C105.044304,34.767853 106.958389,36.840153 109.717735,39.827579 
	C109.893059,36.666641 110.004089,34.664669 110.133575,32.330093 
	C117.494934,32.330093 124.888168,32.330093 132.642181,32.330093 
	C132.642181,40.510105 132.642181,48.898052 132.642181,57.977173 
	C126.307922,57.977173 119.598427,58.766968 113.224693,57.646618 
	C109.999428,57.079700 107.380974,53.060646 103.999931,50.187489 
	C103.999931,51.463760 103.894402,52.514244 104.019043,53.536663 
	C104.452621,57.093159 102.841599,58.174038 99.417740,58.059700 
	C93.135071,57.849895 86.840378,57.999901 80.277458,57.999901 
	C80.277458,49.322369 80.277458,40.937618 80.277458,32.111481 
	C87.711494,32.111481 95.130379,32.111481 102.839737,32.403519 
z"/>
<path fill="#D10A11" opacity="1.000000" stroke="none" 
	d="
M136.003754,69.234634 
	C136.000671,71.525017 136.000671,73.356079 136.000671,75.768639 
	C134.451141,75.839455 132.945969,75.908249 132.130859,75.945503 
	C130.732315,71.387047 129.499893,67.370087 128.159119,63.000000 
	C131.514175,63.000000 134.651917,63.005344 137.789612,62.998314 
	C140.328888,62.992626 142.982147,63.652550 144.184128,60.083458 
	C144.468353,59.239544 147.083511,59.180641 149.766266,58.450340 
	C148.531174,60.555241 147.982895,61.489655 147.481140,62.344765 
	C148.825073,63.067097 150.183289,63.797115 152.005264,64.776382 
	C156.693176,60.891315 159.324722,60.876377 163.211334,65.307083 
	C166.511673,60.045143 171.769287,65.891548 175.756012,61.984367 
	C175.756012,67.240700 175.756012,71.344521 175.756012,76.921638 
	C173.128540,75.497757 171.125748,74.412415 169.126648,73.329063 
	C169.101425,73.537102 168.979279,74.544304 168.759079,76.360054 
	C166.869934,75.816734 165.142807,75.320015 162.520172,74.565742 
	C159.159958,77.362015 156.445374,77.350578 151.394104,73.480278 
	C150.043365,76.449852 148.837326,76.664742 138.992844,75.558273 
	C138.992844,73.335442 139.077469,71.047722 138.935745,68.774109 
	C138.898422,68.175507 138.161179,67.620529 137.745361,67.045517 
	C137.165863,67.622124 136.586365,68.198723 136.003754,69.234634 
z"/>
<path fill="#D10A11" opacity="1.000000" stroke="none" 
	d="
M111.152618,63.004868 
	C113.110817,63.000725 114.609016,63.016357 116.106789,62.997276 
	C120.530838,62.940922 122.101082,65.347366 122.033661,69.498672 
	C121.965401,73.701958 120.105247,76.039375 115.820511,75.974380 
	C111.543587,75.909531 107.269791,75.637993 103.119377,75.111847 
	C96.904724,75.453087 90.690071,75.794327 84.218521,76.149673 
	C84.218521,71.536942 84.218521,67.467178 84.218521,63.422256 
	C94.609978,62.221638 96.557968,63.284809 97.315224,70.741333 
	C99.950554,67.991302 98.008354,60.540779 105.661697,63.469055 
	C106.511589,65.807732 107.529236,68.608055 108.366356,70.911606 
	C109.064095,68.541039 109.878258,65.774910 111.152618,63.004868 
z"/>
<path fill="#D10A11" opacity="1.000000" stroke="none" 
	d="
M242.946777,64.190826 
	C242.989487,66.963303 242.989487,69.266029 242.989487,71.188705 
	C244.980057,73.088036 250.278687,69.847023 248.709824,75.599724 
	C235.531601,77.138680 226.927124,76.323433 226.088470,74.425026 
	C221.806793,75.170349 217.782684,75.870834 213.313995,76.648712 
	C213.313995,71.755341 213.313995,67.681168 213.313995,62.670254 
	C217.471649,63.168770 221.568344,63.659969 224.940186,64.064262 
	C231.053894,62.277596 236.946915,62.672195 242.946777,64.190826 
z"/>
<path fill="#D10A11" opacity="1.000000" stroke="none" 
	d="
M55.031864,74.637695 
	C55.006100,70.572311 55.006100,66.966148 55.006100,62.664173 
	C59.407688,63.108139 63.283886,63.499115 68.130592,63.987980 
	C69.834503,61.817272 72.618973,61.036705 76.464447,63.670547 
	C77.709549,64.523338 80.446968,63.197315 82.780663,62.823227 
	C82.780663,67.252846 82.780663,71.348518 82.780663,75.539970 
	C76.050468,75.539970 69.354073,75.539970 62.350128,75.539970 
	C62.123756,74.621216 61.804798,73.326675 61.485840,72.032135 
	C61.208420,72.017334 60.931004,72.002525 60.653584,71.987724 
	C60.296360,73.232658 59.939133,74.477585 59.432941,76.241676 
	C57.953465,75.854584 56.505547,75.475754 55.031864,74.637695 
z"/>
<path fill="#D10A11" opacity="1.000000" stroke="none" 
	d="
M182.964111,73.007538 
	C182.450302,73.618767 182.016083,74.601456 181.473557,75.829285 
	C180.313812,75.829285 178.871246,75.829285 177.214050,75.829285 
	C177.214050,71.623161 177.214050,67.530670 177.214050,63.219265 
	C178.753952,63.219265 180.173233,63.219265 181.746948,63.219265 
	C181.896957,64.335716 182.042587,65.419411 182.201126,66.599258 
	C185.173279,62.804802 188.476669,60.033085 193.128174,63.770123 
	C194.322601,64.729721 194.757462,66.634735 195.541275,68.105423 
	C195.245667,68.492699 194.950058,68.879967 194.654465,69.267242 
	C192.745255,68.769218 190.836060,68.271194 187.902802,67.506035 
	C187.772141,68.523033 187.570892,70.089539 187.404007,71.388428 
	C190.678207,70.925270 192.977524,70.600006 195.276840,70.274750 
	C195.352066,70.737656 195.427277,71.200569 195.502502,71.663475 
	C196.339935,69.416389 196.931549,67.026245 198.120316,64.983612 
	C198.699554,63.988312 200.414490,63.110451 201.576248,63.156921 
	C202.648193,63.199799 204.171371,64.332138 204.617050,65.364128 
	C206.008499,68.586128 206.983932,71.987808 208.562820,76.616066 
	C206.080215,75.774834 204.501709,75.248741 202.930084,74.702812 
	C202.354584,74.502892 201.751633,73.989029 201.235886,74.073654 
	C197.804016,74.636772 194.357224,75.180359 190.984192,76.010368 
	C187.686478,76.821831 185.036697,76.233856 182.964111,73.007538 
z"/>
<path fill="#949595" opacity="1.000000" stroke="none" 
	d="
M236.211044,5.851139 
	C236.103897,5.527573 236.269516,5.327294 236.665588,5.080814 
	C236.837753,4.986393 236.918640,5.440516 236.898941,5.670165 
	C236.879242,5.899813 236.425522,5.926206 236.211044,5.851139 
z"/>
<path fill="#5B5D5D" opacity="1.000000" stroke="none" 
	d="
M67.006165,5.315532 
	C67.243500,5.054432 67.520836,5.163660 67.880280,5.583711 
	C67.705093,5.702822 67.399681,5.633264 67.006165,5.315532 
z"/>
<path fill="#D30A11" opacity="1.000000" stroke="none" 
	d="
M65.000000,1.999796 
	C65.182838,1.999598 65.365669,1.999605 65.823288,1.999350 
	C66.087242,2.325466 66.076416,2.651843 65.881081,3.436579 
	C65.301872,4.175855 64.907188,4.456771 64.507202,3.982206 
	C64.667839,2.817831 64.833763,2.408936 64.999695,2.000041 
	C64.999695,2.000041 65.000000,2.000000 65.000000,1.999796 
z"/>
<path fill="#D20A11" opacity="1.000000" stroke="none" 
	d="
M64.681595,2.046782 
	C64.833763,2.408936 64.667839,2.817831 63.913757,3.562827 
	C63.325607,3.898929 63.223961,3.807681 63.351776,3.379076 
	C63.563892,2.706120 63.648197,2.461768 63.732498,2.217416 
	C63.942833,2.176118 64.153160,2.134820 64.681595,2.046782 
z"/>
<path fill="#D94835" opacity="1.000000" stroke="none" 
	d="
M63.577881,2.428078 
	C63.648197,2.461768 63.563892,2.706120 63.336243,3.312569 
	C63.192894,3.674667 63.123493,3.613862 63.078995,3.620081 
	C63.164085,3.297114 63.293678,2.967927 63.577881,2.428078 
z"/>
<path fill="#FFFFFF" opacity="1.000000" stroke="none" 
	d="
M261.704895,88.949593 
	C258.362427,87.431992 258.298492,87.036186 260.513458,82.985039 
	C262.285278,83.893448 264.072021,84.809517 266.112549,85.855690 
	C264.694611,86.939911 263.402069,87.928253 261.704895,88.949593 
z"/>
</svg>